# xmcd CD database file
# Copyright (C) 1993-1998 Ti Kan
# 
# Track frame offsets:
#     150
#     4860
#     18079
#     53946
#     60077
#     74530
#     98232
#     108734
#     138316
#     148264
#     169469
#     184243
#     226997
#     240573
#     248910
#     263893
#     288844
#     302810
#     322897
# 
# Disc length: 4360 seconds
# 
# Revision: 1
# Processed by: cddbd v1.4b41PL1 Copyright (c) Steve Scherf et al.
# Submitted via: DiscPlay 4.0.4
# 
DISCID=0f110613
DTITLE=Various Artist - Comedy 101 - Volume I
DYEAR=1900
DGENRE=
TTITLE0=Opening
TTITLE1=Rippy the Gator (Arrogant Worms)
TTITLE2=The Operator
TTITLE3=Shimmer (Saturday Night Live)
TTITLE4=Last Will and Temperment (The Frantics)
TTITLE5=Life in the Slaw Lane (Kip Addotta)
TTITLE6=Highly Illogical (Leonard Nimoy)
TTITLE7=A Friend with a Dog (Bob Newhart)
TTITLE8=Southern Words (Jeff Foxworthy)
TTITLE9=Mr. Wiggly (Billy C. Worths)
TTITLE10=Ernestine the Telephone Woman (Lily Tomlin)
TTITLE11=Words and Euphemisms (George Carlin)
TTITLE12=Janitor (Corky and the Juice Pigs)
TTITLE13=Falipa and Danina (Radio Free Vestibules)
TTITLE14=Interesting People (Monty Python)
TTITLE15=The Knuckle Song (Barry and the Bookbinders)
TTITLE16=March of the Salamanders (Zilch Fletcher)
TTITLE17=Deteriorata (National Lampoon)
TTITLE18=How many times has this happened to you? (Radio Free Vestibules)
EXTD=
EXTT0=
EXTT1=
EXTT2=
EXTT3=
EXTT4=
EXTT5=
EXTT6=
EXTT7=
EXTT8=
EXTT9=
EXTT10=
EXTT11=
EXTT12=
EXTT13=
EXTT14=
EXTT15=
EXTT16=
EXTT17=
EXTT18=
PLAYORDER=
